<?xml version="1.0" encoding="UTF-8"?>
<!DOCTYPE svg PUBLIC "-//W3C//DTD SVG 1.1//EN" "http://www.w3.org/Graphics/SVG/1.1/DTD/svg11.dtd">
<svg version="1.1" xmlns="http://www.w3.org/2000/svg" xmlns:xlink="http://www.w3.org/1999/xlink" x="0" y="0" width="127.999" height="128" viewBox="0, 0, 127.999, 128">
  <g id="Layer_1">
    <path d="M64,7.989 C33.115,7.989 7.99,33.115 7.99,63.999 C7.99,94.884 33.115,120.011 64,120.011 C94.883,120.011 120.01,94.884 120.01,63.999 C120.01,33.115 94.883,7.989 64,7.989 z M79.83,43.347 C79.83,43.899 79.383,44.346 78.83,44.347 L72.463,44.351 C68.262,44.351 67.494,45.987 67.494,49.209 L67.494,55.893 L78.414,55.893 C78.701,55.893 78.975,56.017 79.164,56.233 C79.353,56.449 79.441,56.736 79.406,57.021 L77.851,69.054 C77.787,69.553 77.361,69.926 76.859,69.926 L67.494,69.926 L67.494,99.805 C67.494,100.358 67.047,100.805 66.494,100.805 L54.07,100.805 C53.517,100.805 53.07,100.358 53.07,99.805 L53.07,69.926 L43.675,69.926 C43.122,69.926 42.675,69.479 42.675,68.926 L42.675,56.893 C42.675,56.34 43.122,55.893 43.675,55.893 L53.07,55.893 L53.07,48.018 C53.07,37.588 59.382,31.11 69.545,31.11 C73.914,31.11 77.775,31.435 78.961,31.592 C79.459,31.658 79.83,32.082 79.83,32.583 L79.83,43.347 z" fill="#FFFFFF"/>
  </g>
</svg>
