<?xml version="1.0" encoding="UTF-8"?>
<!DOCTYPE svg PUBLIC "-//W3C//DTD SVG 1.1//EN" "http://www.w3.org/Graphics/SVG/1.1/DTD/svg11.dtd">
<svg version="1.1" xmlns="http://www.w3.org/2000/svg" xmlns:xlink="http://www.w3.org/1999/xlink" x="0" y="0" width="18" height="18" viewBox="0, 0, 128, 128">
  <g id="Layer_1">
    <path d="M63.997,7.989 C33.114,7.989 7.988,33.115 7.988,63.999 C7.988,94.884 33.114,120.011 63.997,120.011 C94.882,120.011 120.008,94.884 120.008,63.999 C120.007,33.115 94.881,7.989 63.997,7.989 z M93.807,49.391 C92.304,51.634 90.468,53.582 88.343,55.189 C88.352,55.514 88.358,55.839 88.358,56.164 C88.358,72.498 75.929,89.393 55.129,89.393 C48.772,89.393 42.58,87.58 37.224,84.149 C36.832,83.898 36.665,83.411 36.822,82.972 C36.977,82.534 37.413,82.255 37.878,82.314 C38.755,82.415 39.624,82.465 40.462,82.465 C44.542,82.465 48.43,81.368 51.843,79.272 C47.723,78.277 44.329,75.205 43.001,71.051 C42.894,70.714 42.971,70.347 43.205,70.082 C43.44,69.818 43.798,69.694 44.143,69.765 C44.331,69.801 44.52,69.832 44.708,69.858 C41.235,67.645 38.982,63.754 38.982,59.446 L38.982,59.303 C38.982,58.949 39.17,58.621 39.475,58.442 C39.78,58.261 40.158,58.257 40.467,58.429 C40.902,58.67 41.353,58.879 41.816,59.055 C40.062,56.889 39.074,54.162 39.074,51.293 C39.074,49.115 39.651,46.971 40.742,45.094 C40.907,44.81 41.2,44.625 41.528,44.599 C41.862,44.574 42.174,44.709 42.382,44.964 C47.701,51.486 55.433,55.589 63.75,56.345 C63.691,55.852 63.662,55.353 63.662,54.852 C63.662,48.055 69.193,42.525 75.991,42.525 C79.198,42.525 82.301,43.79 84.59,46.012 C86.829,45.513 88.963,44.667 90.941,43.493 C91.297,43.278 91.749,43.31 92.074,43.57 C92.399,43.828 92.531,44.26 92.405,44.656 C91.912,46.202 91.12,47.622 90.085,48.844 C90.932,48.588 91.762,48.28 92.572,47.92 C92.98,47.742 93.457,47.85 93.743,48.191 C94.029,48.532 94.055,49.021 93.807,49.391 z" fill="#FFFFFF"/>
  </g>
</svg>
